<svg width="71" height="71" viewBox="0 0 71 71" fill="none" xmlns="http://www.w3.org/2000/svg">
<g filter="url(#filter0_i_68_22)">
<rect width="71" height="71" rx="35.5" fill="url(#paint0_linear_68_22)"/>
<rect width="71" height="71" rx="35.5" fill="url(#paint1_linear_68_22)" fill-opacity="0.3"/>
<path d="M19.9393 35.9393C19.3536 36.5251 19.3536 37.4749 19.9393 38.0607L29.4853 47.6066C30.0711 48.1924 31.0208 48.1924 31.6066 47.6066C32.1924 47.0208 32.1924 46.0711 31.6066 45.4853L23.1213 37L31.6066 28.5147C32.1924 27.9289 32.1924 26.9792 31.6066 26.3934C31.0208 25.8076 30.0711 25.8076 29.4853 26.3934L19.9393 35.9393ZM50 35.5L21 35.5L21 38.5L50 38.5L50 35.5Z" fill="white"/>
</g>
<defs>
<filter id="filter0_i_68_22" x="0" y="0" width="86" height="85" filterUnits="userSpaceOnUse" color-interpolation-filters="sRGB">
<feFlood flood-opacity="0" result="BackgroundImageFix"/>
<feBlend mode="normal" in="SourceGraphic" in2="BackgroundImageFix" result="shape"/>
<feColorMatrix in="SourceAlpha" type="matrix" values="0 0 0 0 0 0 0 0 0 0 0 0 0 0 0 0 0 0 127 0" result="hardAlpha"/>
<feOffset dx="15" dy="14"/>
<feGaussianBlur stdDeviation="11"/>
<feComposite in2="hardAlpha" operator="arithmetic" k2="-1" k3="1"/>
<feColorMatrix type="matrix" values="0 0 0 0 1 0 0 0 0 1 0 0 0 0 1 0 0 0 0.29 0"/>
<feBlend mode="normal" in2="shape" result="effect1_innerShadow_68_22"/>
</filter>
<linearGradient id="paint0_linear_68_22" x1="35.5" y1="0" x2="35.5" y2="71" gradientUnits="userSpaceOnUse">
<stop stop-color="#E5A8BE"/>
<stop offset="1" stop-color="#D07A8A"/>
</linearGradient>
<linearGradient id="paint1_linear_68_22" x1="35.5" y1="-6.85255e-06" x2="63.2781" y2="1.86559" gradientUnits="userSpaceOnUse">
<stop stop-color="white" stop-opacity="0"/>
<stop offset="0.520833" stop-color="white" stop-opacity="0.479167"/>
<stop offset="1" stop-color="white" stop-opacity="0"/>
</linearGradient>
</defs>
</svg>
