<svg width="71" height="75" viewBox="0 0 71 75" fill="none" xmlns="http://www.w3.org/2000/svg">
<g filter="url(#filter0_di_1_138)">
<rect x="71" y="71" width="71" height="71" rx="35.5" transform="rotate(-180 71 71)" fill="url(#paint0_linear_1_138)"/>
<rect x="71" y="71" width="71" height="71" rx="35.5" transform="rotate(-180 71 71)" fill="url(#paint1_linear_1_138)" fill-opacity="0.3"/>
<path d="M51.0607 35.0607C51.6464 34.4749 51.6464 33.5251 51.0607 32.9393L41.5147 23.3934C40.9289 22.8076 39.9792 22.8076 39.3934 23.3934C38.8076 23.9792 38.8076 24.9289 39.3934 25.5147L47.8787 34L39.3934 42.4853C38.8076 43.0711 38.8076 44.0208 39.3934 44.6066C39.9792 45.1924 40.9289 45.1924 41.5147 44.6066L51.0607 35.0607ZM21 35.5L50 35.5L50 32.5L21 32.5L21 35.5Z" fill="white"/>
</g>
<defs>
<filter id="filter0_di_1_138" x="0" y="0" width="86" height="85" filterUnits="userSpaceOnUse" color-interpolation-filters="sRGB">
<feFlood flood-opacity="0" result="BackgroundImageFix"/>
<feColorMatrix in="SourceAlpha" type="matrix" values="0 0 0 0 0 0 0 0 0 0 0 0 0 0 0 0 0 0 127 0" result="hardAlpha"/>
<feOffset dy="4"/>
<feColorMatrix type="matrix" values="0 0 0 0 0.738603 0 0 0 0 0.40399 0 0 0 0 0.524451 0 0 0 1 0"/>
<feBlend mode="normal" in2="BackgroundImageFix" result="effect1_dropShadow_1_138"/>
<feBlend mode="normal" in="SourceGraphic" in2="effect1_dropShadow_1_138" result="shape"/>
<feColorMatrix in="SourceAlpha" type="matrix" values="0 0 0 0 0 0 0 0 0 0 0 0 0 0 0 0 0 0 127 0" result="hardAlpha"/>
<feOffset dx="15" dy="14"/>
<feGaussianBlur stdDeviation="11"/>
<feComposite in2="hardAlpha" operator="arithmetic" k2="-1" k3="1"/>
<feColorMatrix type="matrix" values="0 0 0 0 1 0 0 0 0 1 0 0 0 0 1 0 0 0 0.29 0"/>
<feBlend mode="normal" in2="shape" result="effect2_innerShadow_1_138"/>
</filter>
<linearGradient id="paint0_linear_1_138" x1="106.5" y1="71" x2="106.5" y2="142" gradientUnits="userSpaceOnUse">
<stop stop-color="#E5A8BE"/>
<stop offset="1" stop-color="#D07A8A"/>
</linearGradient>
<linearGradient id="paint1_linear_1_138" x1="106.5" y1="71" x2="134.278" y2="72.8656" gradientUnits="userSpaceOnUse">
<stop stop-color="white" stop-opacity="0"/>
<stop offset="0.520833" stop-color="white" stop-opacity="0.479167"/>
<stop offset="1" stop-color="white" stop-opacity="0"/>
</linearGradient>
</defs>
</svg>
