<svg width="52" height="52" viewBox="0 0 52 52" fill="none" xmlns="http://www.w3.org/2000/svg">
<ellipse cx="26" cy="26" rx="26" ry="26" fill="url(#paint0_linear_94_98)"/>
<path d="M27.5 16C27.5 15.1716 26.8284 14.5 26 14.5C25.1716 14.5 24.5 15.1716 24.5 16L27.5 16ZM24.9393 37.0607C25.5251 37.6464 26.4749 37.6464 27.0607 37.0607L36.6066 27.5147C37.1924 26.9289 37.1924 25.9792 36.6066 25.3934C36.0208 24.8076 35.0711 24.8076 34.4853 25.3934L26 33.8787L17.5147 25.3934C16.9289 24.8076 15.9792 24.8076 15.3934 25.3934C14.8076 25.9792 14.8076 26.9289 15.3934 27.5147L24.9393 37.0607ZM24.5 16L24.5 36L27.5 36L27.5 16L24.5 16Z" fill="white"/>
<defs>
<linearGradient id="paint0_linear_94_98" x1="8.58" y1="7.28" x2="41.34" y2="46.02" gradientUnits="userSpaceOnUse">
<stop stop-color="#E5A8BE"/>
<stop offset="1" stop-color="#D07A8A"/>
</linearGradient>
</defs>
</svg>
