<svg width="52" height="52" viewBox="0 0 52 52" fill="none" xmlns="http://www.w3.org/2000/svg">
<circle cx="26" cy="26" r="26" fill="url(#paint0_linear_87_82)"/>
<path d="M24.5 36C24.5 36.8284 25.1716 37.5 26 37.5C26.8284 37.5 27.5 36.8284 27.5 36L24.5 36ZM27.0607 14.9393C26.4749 14.3536 25.5251 14.3536 24.9393 14.9393L15.3934 24.4853C14.8076 25.0711 14.8076 26.0208 15.3934 26.6066C15.9792 27.1924 16.9289 27.1924 17.5147 26.6066L26 18.1213L34.4853 26.6066C35.0711 27.1924 36.0208 27.1924 36.6066 26.6066C37.1924 26.0208 37.1924 25.0711 36.6066 24.4853L27.0607 14.9393ZM27.5 36L27.5 16L24.5 16L24.5 36L27.5 36Z" fill="white"/>
<defs>
<linearGradient id="paint0_linear_87_82" x1="8.58" y1="7.28" x2="41.34" y2="46.02" gradientUnits="userSpaceOnUse">
<stop stop-color="#E5A8BE"/>
<stop offset="1" stop-color="#D07A8A"/>
</linearGradient>
</defs>
</svg>
