<svg width="68" height="68" viewBox="0 0 68 68" fill="none" xmlns="http://www.w3.org/2000/svg">
<path fill-rule="evenodd" clip-rule="evenodd" d="M31.1146 35.9232C30.7987 38.5019 30.1379 42.7733 29.9448 43.5784C29.5103 45.3899 26.8552 44.8867 27.0483 43.5783C27.1958 42.5788 28.373 35.8177 28.373 35.8177C28.0571 35.7943 27.3125 35.7826 26.1391 35.7826C24.9657 35.7826 24.1534 35.806 23.7021 35.8529C21.0846 39.51 18.6701 42.288 16.4588 44.1868C14.2474 46.0623 12.0361 47 9.82473 47C8.74162 47 7.83903 46.6601 7.11696 45.9802C6.37232 45.3004 6 44.3978 6 43.2726C6 41.1393 7.55697 39.1935 10.6709 37.4353C13.8074 35.6771 17.8578 34.4932 22.8221 33.8837C23.4087 32.946 24.5031 31.5042 26.1052 29.5585L32.4347 21.0135C32.8408 20.3571 33.2357 20.0289 33.6193 20.0289C34.0029 20.0289 34.3188 20.1813 34.567 20.4861C34.8152 20.7908 34.9394 21.1893 34.9394 21.6816C34.9394 22.1505 34.6799 22.8538 34.1609 23.7915C33.6644 24.7058 33.1455 26.1358 32.6039 28.0816C32.0623 30.0273 31.1146 35.9232 31.1146 35.9232ZM21.4343 35.9232C20.4866 37.5877 19.0763 39.3459 17.2034 41.1979C15.308 43.1202 13.4802 44.0814 11.7202 44.0814C11.0658 44.0814 10.5355 43.9055 10.1294 43.5539C9.74576 43.2022 9.55396 42.7217 9.55396 42.1122C9.55396 40.7056 10.5807 39.381 12.6341 38.1386C14.71 36.8961 17.6434 36.1576 21.4343 35.9232ZM29.3884 30.5431C29.1402 31.7387 28.9371 32.735 28.7792 33.532C28.6889 33.532 28.4633 33.5438 28.1022 33.5672C27.7412 33.5906 27.2786 33.6141 26.7145 33.6375C26.1729 33.6375 25.7104 33.6493 25.3268 33.6727C26.4099 32.2427 27.1658 31.2815 27.5945 30.7892C28.0232 30.2735 28.7792 29.4764 29.8623 28.398C29.8171 28.609 29.6592 29.324 29.3884 30.5431Z" fill="url(#paint0_linear_110_6)"/>
<path fill-rule="evenodd" clip-rule="evenodd" d="M36.8472 33.6792C37.1636 31.0829 39.2397 21.3205 39.32 21.0135C39.7093 19.5257 42.0234 19.8059 41.8303 21.0135C41.6372 22.2212 39.593 33.7854 39.593 33.7854C39.9094 33.809 40.6552 33.8208 41.8303 33.8208C43.0055 33.8208 43.819 33.7972 44.271 33.75C46.8925 30.068 49.3106 27.2711 51.5253 25.3593C53.74 23.4711 55.9547 22.527 58.1695 22.527C59.2542 22.527 60.1582 22.8692 60.8813 23.5537C61.6271 24.2382 62 25.1469 62 26.2798C62 28.4276 60.4407 30.3867 57.322 32.1568C54.1807 33.927 50.1242 35.119 45.1524 35.7326C44.5648 36.6767 43.4688 38.1283 41.8642 40.0873C40.2597 42.0699 38.915 44.6789 36.8472 44.7828C35.3097 44.86 34.8133 43.5097 35.3557 41.5743C35.8981 39.6389 36.271 37.8097 36.4743 36.0867L36.8472 33.6792ZM46.5422 33.6792C47.4914 32.0034 48.9038 30.2332 50.7796 28.3686C52.6779 26.4332 54.5084 25.4655 56.2711 25.4655C56.9265 25.4655 57.4576 25.6425 57.8644 25.9966C58.2486 26.3506 58.4406 26.8345 58.4406 27.4481C58.4406 28.8643 57.4124 30.1978 55.3559 31.4488C53.2768 32.6997 50.3389 33.4432 46.5422 33.6792ZM38.5761 39.096C38.8247 37.8923 39.028 36.8892 39.1862 36.0867C39.2766 36.0867 39.5026 36.0749 39.8642 36.0513C40.2258 36.0277 40.6891 36.0041 41.2541 35.9805C41.7964 35.9805 42.2597 35.9687 42.6439 35.9451C41.5591 37.3848 40.8021 38.3525 40.3727 38.8482C39.9433 39.3674 39.1862 40.1699 38.1015 41.2556C38.1467 41.0432 38.3049 40.3234 38.5761 39.096Z" fill="url(#paint1_linear_110_6)"/>
<path d="M39.6 33.8164L28.7862 33.5145L28.4 35.8291L39.2138 36.0304L39.6 33.8164Z" fill="url(#paint2_linear_110_6)"/>
<defs>
<linearGradient id="paint0_linear_110_6" x1="35.6414" y1="12.1502" x2="19.1559" y2="42.8926" gradientUnits="userSpaceOnUse">
<stop stop-color="#A7A7A7"/>
<stop offset="0.989583" stop-color="#E1E1E1"/>
</linearGradient>
<linearGradient id="paint1_linear_110_6" x1="35.6414" y1="12.1502" x2="19.1559" y2="42.8926" gradientUnits="userSpaceOnUse">
<stop stop-color="#A7A7A7"/>
<stop offset="0.989583" stop-color="#E1E1E1"/>
</linearGradient>
<linearGradient id="paint2_linear_110_6" x1="35.6414" y1="12.1502" x2="19.1559" y2="42.8926" gradientUnits="userSpaceOnUse">
<stop stop-color="#A7A7A7"/>
<stop offset="0.989583" stop-color="#E1E1E1"/>
</linearGradient>
</defs>
</svg>
