<svg width="15" height="13" viewBox="0 0 15 13" fill="none" xmlns="http://www.w3.org/2000/svg">
<path d="M4.125 1.03001e-06C1.84688 1.03001e-06 0 1.84688 0 4.125C0 8.25 4.875 12 7.5 12.8723C10.125 12 15 8.25 15 4.125C15 1.84688 13.1531 1.03001e-06 10.875 1.03001e-06C9.48 1.03001e-06 8.24625 0.692626 7.5 1.75275C7.11963 1.21095 6.61431 0.768784 6.02682 0.463683C5.43934 0.158582 4.78699 -0.000467012 4.125 1.03001e-06Z" fill="#D48593"/>
<path d="M4.125 1.03001e-06C1.84688 1.03001e-06 0 1.84688 0 4.125C0 8.25 4.875 12 7.5 12.8723C10.125 12 15 8.25 15 4.125C15 1.84688 13.1531 1.03001e-06 10.875 1.03001e-06C9.48 1.03001e-06 8.24625 0.692626 7.5 1.75275C7.11963 1.21095 6.61431 0.768784 6.02682 0.463683C5.43934 0.158582 4.78699 -0.000467012 4.125 1.03001e-06Z" fill="url(#paint0_linear_167_548)"/>
<path d="M4.125 1.03001e-06C1.84688 1.03001e-06 0 1.84688 0 4.125C0 8.25 4.875 12 7.5 12.8723C10.125 12 15 8.25 15 4.125C15 1.84688 13.1531 1.03001e-06 10.875 1.03001e-06C9.48 1.03001e-06 8.24625 0.692626 7.5 1.75275C7.11963 1.21095 6.61431 0.768784 6.02682 0.463683C5.43934 0.158582 4.78699 -0.000467012 4.125 1.03001e-06Z" fill="url(#paint1_linear_167_548)" fill-opacity="0.3"/>
<defs>
<linearGradient id="paint0_linear_167_548" x1="7.5" y1="0" x2="7.5" y2="12.8723" gradientUnits="userSpaceOnUse">
<stop stop-color="#E5A8BE"/>
<stop offset="1" stop-color="#D07A8A"/>
</linearGradient>
<linearGradient id="paint1_linear_167_548" x1="7.5" y1="-1.24236e-06" x2="13.3592" y2="0.458553" gradientUnits="userSpaceOnUse">
<stop stop-color="white" stop-opacity="0"/>
<stop offset="0.520833" stop-color="white" stop-opacity="0.479167"/>
<stop offset="1" stop-color="white" stop-opacity="0"/>
</linearGradient>
</defs>
</svg>
